HIERARCHY
ROOT Hips
{
	OFFSET 0.000000 83.214638 0.000000
	CHANNELS 6 Xposition Yposition Zposition Xrotation Yrotation Zrotation
	JOINT Pelvis
	{
		OFFSET 0.000000 0.000000 0.000000
		CHANNELS 3 Xrotation Yrotation Zrotation
		JOINT LeftUpLeg
		{
			OFFSET 8.479700 -4.795502 -0.379100
			CHANNELS 3 Xrotation Yrotation Zrotation
			JOINT LeftLeg
			{
				OFFSET 0.024144 -32.555107 0.112900
				CHANNELS 3 Xrotation Yrotation Zrotation
				JOINT LeftFoot
				{
					OFFSET -0.024144 -32.638630 -3.012600
					CHANNELS 3 Xrotation Yrotation Zrotation
					JOINT LeftToeBase
					{
						OFFSET 0.970200 -13.225400 11.864200
						CHANNELS 3 Xrotation Yrotation Zrotation
						End Site
						{
							OFFSET 0.000000 12.319262 0.000000
						}
					}
					JOINT LFootTongue
					{
						OFFSET 1.142400 -1.059800 6.665200
						CHANNELS 3 Xrotation Yrotation Zrotation
						End Site
						{
							OFFSET 0.000000 12.319262 0.000000
						}
					}
				}
				JOINT LeftPantLeg
				{
					OFFSET 0.918482 -16.533964 -2.284700
					CHANNELS 3 Xrotation Yrotation Zrotation
					End Site
					{
						OFFSET 0.350399 24.744368 0.000000
					}
				}
			}
		}
		JOINT RightUpLeg
		{
			OFFSET -8.479700 -4.795502 -0.379100
			CHANNELS 3 Xrotation Yrotation Zrotation
			JOINT RightLeg
			{
				OFFSET -0.023144 -32.555092 0.112900
				CHANNELS 3 Xrotation Yrotation Zrotation
				JOINT RightFoot
				{
					OFFSET 0.023144 -32.638641 -3.012700
					CHANNELS 3 Xrotation Yrotation Zrotation
					JOINT RightToeBase
					{
						OFFSET -0.970200 -13.225400 11.864200
						CHANNELS 3 Xrotation Yrotation Zrotation
						End Site
						{
							OFFSET 0.000000 12.319244 0.000000
						}
					}
					JOINT RFootTongue
					{
						OFFSET -1.142200 -1.059800 6.665200
						CHANNELS 3 Xrotation Yrotation Zrotation
						End Site
						{
							OFFSET 0.000000 12.319243 0.000000
						}
					}
				}
				JOINT RightPantLeg
				{
					OFFSET -0.919482 -16.533978 -2.284800
					CHANNELS 3 Xrotation Yrotation Zrotation
					End Site
					{
						OFFSET -0.350400 24.744419 0.000000
					}
				}
			}
		}
	}
	JOINT Spine
	{
		OFFSET 0.000000 7.722000 1.166200
		CHANNELS 3 Xrotation Yrotation Zrotation
		JOINT Spine1
		{
			OFFSET 0.000000 12.024101 0.248800
			CHANNELS 3 Xrotation Yrotation Zrotation
			JOINT Spine2
			{
				OFFSET 0.000000 11.502998 -0.491200
				CHANNELS 3 Xrotation Yrotation Zrotation
				JOINT Neck
				{
					OFFSET 0.000000 18.430702 -3.123100
					CHANNELS 3 Xrotation Yrotation Zrotation
					JOINT Head
					{
						OFFSET 0.000000 9.051102 1.034000
						CHANNELS 3 Xrotation Yrotation Zrotation
						JOINT HairB
						{
							OFFSET 0.208400 24.786102 24.822300
							CHANNELS 3 Xrotation Yrotation Zrotation
							End Site
							{
								OFFSET 0.000000 32.263779 0.000000
							}
						}
						JOINT HairA
						{
							OFFSET -7.081100 24.428299 23.196600
							CHANNELS 3 Xrotation Yrotation Zrotation
							End Site
							{
								OFFSET 0.000000 32.263779 0.000000
							}
						}
						JOINT Hat
						{
							OFFSET 16.728800 15.048294 -15.439601
							CHANNELS 3 Xrotation Yrotation Zrotation
							End Site
							{
								OFFSET 0.000000 32.263779 0.000000
							}
						}
					}
				}
				JOINT LeftShoulder
				{
					OFFSET 6.197800 13.665199 -4.064700
					CHANNELS 3 Xrotation Yrotation Zrotation
					JOINT LeftArm
					{
						OFFSET 7.778100 -0.187103 -1.709300
						CHANNELS 3 Xrotation Yrotation Zrotation
						JOINT LeftForeArm
						{
							OFFSET 22.049376 0.000000 0.000000
							CHANNELS 3 Xrotation Yrotation Zrotation
							JOINT LeftHand
							{
								OFFSET 23.009392 0.000000 0.000000
								CHANNELS 3 Xrotation Yrotation Zrotation
								JOINT LeftHandThumb1
								{
									OFFSET 3.507191 -2.063065 3.133727
									CHANNELS 3 Xrotation Yrotation Zrotation
									JOINT LeftHandThumb2
									{
										OFFSET 3.101337 -1.790558 1.790558
										CHANNELS 3 Xrotation Yrotation Zrotation
										JOINT LeftHandThumb3
										{
											OFFSET 3.058640 -1.765907 1.765906
											CHANNELS 3 Xrotation Yrotation Zrotation
											End Site
											{
												OFFSET -0.415260 3.926476 -0.049563
											}
										}
									}
								}
								JOINT LeftHandIndex1
								{
									OFFSET 11.334419 -0.901459 3.706815
									CHANNELS 3 Xrotation Yrotation Zrotation
									JOINT LeftHandIndex2
									{
										OFFSET 3.283112 0.000000 0.000000
										CHANNELS 3 Xrotation Yrotation Zrotation
										JOINT LeftHandIndex3
										{
											OFFSET 3.323853 0.000000 0.000000
											CHANNELS 3 Xrotation Yrotation Zrotation
											End Site
											{
												OFFSET -1.135597 3.097809 0.402452
											}
										}
									}
								}
								JOINT LeftHandMiddle1
								{
									OFFSET 11.335861 0.000000 0.000000
									CHANNELS 3 Xrotation Yrotation Zrotation
									JOINT LeftHandMiddle2
									{
										OFFSET 3.410492 0.000000 0.000000
										CHANNELS 3 Xrotation Yrotation Zrotation
										JOINT LeftHandMiddle3
										{
											OFFSET 3.312172 0.000000 0.000000
											CHANNELS 3 Xrotation Yrotation Zrotation
											End Site
											{
												OFFSET -1.150200 3.080154 0.400270
											}
										}
									}
								}
								JOINT LeftHandRing1
								{
									OFFSET 11.514786 -0.013176 -3.003090
									CHANNELS 3 Xrotation Yrotation Zrotation
									JOINT LeftHandRing2
									{
										OFFSET 3.053307 0.000000 0.000000
										CHANNELS 3 Xrotation Yrotation Zrotation
										JOINT LeftHandRing3
										{
											OFFSET 3.295807 0.000000 0.000000
											CHANNELS 3 Xrotation Yrotation Zrotation
											End Site
											{
												OFFSET -1.281006 3.013344 0.375733
											}
										}
									}
								}
								JOINT LeftHandPinky1
								{
									OFFSET 10.518692 -0.960396 -5.730441
									CHANNELS 3 Xrotation Yrotation Zrotation
									JOINT LeftHandPinky2
									{
										OFFSET 2.861649 0.000000 0.000000
										CHANNELS 3 Xrotation Yrotation Zrotation
										JOINT LeftHandPinky3
										{
											OFFSET 2.863380 0.000000 0.000000
											CHANNELS 3 Xrotation Yrotation Zrotation
											End Site
											{
												OFFSET -0.843597 2.711159 0.369971
											}
										}
									}
								}
							}
							JOINT LSleeve
							{
								OFFSET 6.676277 -0.344902 -1.011730
								CHANNELS 3 Xrotation Yrotation Zrotation
								End Site
								{
									OFFSET 0.000000 14.885353 0.000000
								}
							}
						}
					}
				}
				JOINT RightShoulder
				{
					OFFSET -6.197800 13.665199 -4.064700
					CHANNELS 3 Xrotation Yrotation Zrotation
					JOINT RightArm
					{
						OFFSET -7.778100 -0.187103 -1.709300
						CHANNELS 3 Xrotation Yrotation Zrotation
						JOINT RightForeArm
						{
							OFFSET -22.049376 0.000000 0.000000
							CHANNELS 3 Xrotation Yrotation Zrotation
							JOINT RightHand
							{
								OFFSET -23.009392 0.000000 0.000000
								CHANNELS 3 Xrotation Yrotation Zrotation
								JOINT RightHandThumb1
								{
									OFFSET -3.507191 -2.063065 3.133727
									CHANNELS 3 Xrotation Yrotation Zrotation
									JOINT RightHandThumb2
									{
										OFFSET -3.101337 -1.790558 1.790558
										CHANNELS 3 Xrotation Yrotation Zrotation
										JOINT RightHandThumb3
										{
											OFFSET -3.058640 -1.765907 1.765906
											CHANNELS 3 Xrotation Yrotation Zrotation
											End Site
											{
												OFFSET 0.415260 3.926476 -0.049563
											}
										}
									}
								}
								JOINT RightHandIndex1
								{
									OFFSET -11.334419 -0.901459 3.706815
									CHANNELS 3 Xrotation Yrotation Zrotation
									JOINT RightHandIndex2
									{
										OFFSET -3.283112 0.000000 0.000000
										CHANNELS 3 Xrotation Yrotation Zrotation
										JOINT RightHandIndex3
										{
											OFFSET -3.323853 0.000000 0.000000
											CHANNELS 3 Xrotation Yrotation Zrotation
											End Site
											{
												OFFSET 1.135597 3.097809 0.402452
											}
										}
									}
								}
								JOINT RightHandMiddle1
								{
									OFFSET -11.335861 0.000000 0.000000
									CHANNELS 3 Xrotation Yrotation Zrotation
									JOINT RightHandMiddle2
									{
										OFFSET -3.410492 0.000000 0.000000
										CHANNELS 3 Xrotation Yrotation Zrotation
										JOINT RightHandMiddle3
										{
											OFFSET -3.312172 0.000000 0.000000
											CHANNELS 3 Xrotation Yrotation Zrotation
											End Site
											{
												OFFSET 1.150200 3.080154 0.400270
											}
										}
									}
								}
								JOINT RightHandRing1
								{
									OFFSET -11.514786 -0.013176 -3.003090
									CHANNELS 3 Xrotation Yrotation Zrotation
									JOINT RightHandRing2
									{
										OFFSET -3.053307 0.000000 0.000000
										CHANNELS 3 Xrotation Yrotation Zrotation
										JOINT RightHandRing3
										{
											OFFSET -3.295807 0.000000 0.000000
											CHANNELS 3 Xrotation Yrotation Zrotation
											End Site
											{
												OFFSET 1.281006 3.013344 0.375733
											}
										}
									}
								}
								JOINT RightHandPinky1
								{
									OFFSET -10.518692 -0.960396 -5.730441
									CHANNELS 3 Xrotation Yrotation Zrotation
									JOINT RightHandPinky2
									{
										OFFSET -2.861649 0.000000 0.000000
										CHANNELS 3 Xrotation Yrotation Zrotation
										JOINT RightHandPinky3
										{
											OFFSET -2.863380 0.000000 0.000000
											CHANNELS 3 Xrotation Yrotation Zrotation
											End Site
											{
												OFFSET 0.843597 2.711159 0.369971
											}
										}
									}
								}
							}
							JOINT RSleeve
							{
								OFFSET -6.676277 -0.344902 -1.011730
								CHANNELS 3 Xrotation Yrotation Zrotation
								End Site
								{
									OFFSET 0.000000 14.885353 0.000000
								}
							}
						}
					}
				}
				JOINT Backpack
				{
					OFFSET 0.000000 -2.471497 36.677502
					CHANNELS 3 Xrotation Yrotation Zrotation
					End Site
					{
						OFFSET 0.000000 20.427315 0.000000
					}
				}
				JOINT Hood
				{
					OFFSET 0.000000 18.754097 -10.431000
					CHANNELS 3 Xrotation Yrotation Zrotation
					JOINT Hood1
					{
						OFFSET 0.000000 -5.011002 -7.685901
						CHANNELS 3 Xrotation Yrotation Zrotation
						End Site
						{
							OFFSET 0.000000 9.175140 0.000000
						}
					}
				}
				JOINT LHoodieString
				{
					OFFSET 5.250500 16.397697 3.089900
					CHANNELS 3 Xrotation Yrotation Zrotation
					JOINT LHoodieString1
					{
						OFFSET 0.257700 -6.364304 3.694600
						CHANNELS 3 Xrotation Yrotation Zrotation
						JOINT LHoodieString2
						{
							OFFSET 0.000000 -9.643799 2.679100
							CHANNELS 3 Xrotation Yrotation Zrotation
							End Site
							{
								OFFSET 0.000000 10.009018 0.000000
							}
						}
					}
				}
				JOINT RHoodieString
				{
					OFFSET -5.250500 16.397697 3.089900
					CHANNELS 3 Xrotation Yrotation Zrotation
					JOINT RHoodieString1
					{
						OFFSET -0.257700 -6.364304 3.694600
						CHANNELS 3 Xrotation Yrotation Zrotation
						JOINT RHoodieString2
						{
							OFFSET 0.000000 -9.643799 2.679100
							CHANNELS 3 Xrotation Yrotation Zrotation
							End Site
							{
								OFFSET 0.000000 10.009018 0.000000
							}
						}
					}
				}
			}
			JOINT LBackpack_Strap
			{
				OFFSET 15.223200 -7.719803 -6.610900
				CHANNELS 3 Xrotation Yrotation Zrotation
				End Site
				{
					OFFSET 0.000000 16.040596 0.000000
				}
			}
			JOINT RBackpack_Strap
			{
				OFFSET -15.223000 -7.719803 -6.610900
				CHANNELS 3 Xrotation Yrotation Zrotation
				End Site
				{
					OFFSET 0.000000 16.040596 0.000000
				}
			}
		}
	}
	JOINT BoyFacialAnim_Joint
	{
		OFFSET 1.000000 -82.208099 -1.550900
		CHANNELS 3 Xrotation Yrotation Zrotation
		End Site
		{
			OFFSET 0.000000 30.012791 0.000000
		}
	}
}
MOTION
Frames: 4
Frame Time: 0.033333
-0.603369 138.740616 94.238998 15.663599 3.572217 0.283794 -0.000001 0.000000 -0.000000 -4.329246 18.348286 19.159811 22.599236 -4.964160 4.425968 0.193508 0.441702 -9.595250 -0.000002 -0.000001 -0.000000 -0.000002 -0.000001 -0.000000 0.000001 -0.000000 -0.000000 5.798229 -15.137320 -12.779870 0.955075 -10.391741 -1.846642 25.593241 -3.325189 24.534055 0.000001 -0.000001 -0.000000 0.000001 -0.000001 -0.000000 -0.000001 -0.000002 -0.000002 -2.599571 0.522825 -2.645710 -5.215864 -0.050695 -1.194347 -5.214890 -0.010228 -1.207190 9.118565 -1.355639 7.219036 21.450609 -2.845625 -1.545162 -0.000000 0.000000 0.000000 -0.000000 0.000000 0.000000 -0.000000 0.000000 0.000000 -8.559879 16.364705 43.155918 -125.671970 27.704026 -65.297449 -0.001972 -92.427643 -0.001978 -35.630529 -10.858350 -7.641663 11.976881 -7.237087 -2.819923 4.993297 21.221922 1.698218 -0.000000 0.000002 0.000002 0.066052 -0.953447 7.926601 0.000004 -0.000007 0.000006 -0.000001 -0.000002 -0.000004 0.066334 -0.955356 7.942578 -0.000009 0.001943 -0.015991 0.000001 -0.000001 0.000000 0.066062 -0.953448 7.926598 -0.000006 -0.000009 -0.000049 0.000001 -0.000003 -0.000001 -0.511267 3.059572 8.447631 -0.018088 -4.054260 -0.511049 -0.000002 -0.000003 -0.000002 0.000001 0.000003 -0.000000 -3.999044 -9.835103 -26.149219 -108.365787 7.450456 54.174530 -0.000001 76.936193 0.000011 -23.273299 37.423235 -12.163107 -15.052105 17.708925 4.635046 24.987866 -14.674446 -2.664672 0.000000 0.000001 0.000000 0.424916 2.397724 -20.095795 0.119934 -1.288496 10.635686 -0.000001 0.000000 0.000002 0.424915 2.397722 -20.095805 0.119932 -1.288489 10.635692 -0.000001 -0.000003 -0.000002 0.424908 2.397721 -20.095808 0.119938 -1.288496 10.635697 0.000001 0.000004 0.000003 0.424905 2.397715 -20.095800 0.119934 -1.288503 10.635683 -0.000001 -0.000002 0.000002 0.000002 -0.000001 -0.000000 0.000000 -0.000000 0.000000 0.000000 -0.000000 0.000000 0.000000 -0.000000 0.000000 0.000000 -0.000000 0.000000 0.000000 -0.000000 0.000001 0.000000 0.000000 0.000001 0.000000 -0.000000 0.000000 0.000000 -0.000000 0.000001 0.000000 0.000000 0.000001 0.000000 -0.000000 0.000000 0.000000 -0.000000 0.000000 -0.000001 0.000000 -0.000000 
-0.715525 134.327026 97.764709 15.486793 3.168863 0.721239 -0.000002 -0.000000 -0.000000 -7.401651 17.180880 18.577266 22.250965 -2.990108 3.821561 0.246711 0.460166 -10.059492 0.000001 0.000000 -0.000001 0.000001 0.000000 -0.000001 -0.000004 0.000002 -0.000001 1.635125 -14.828791 -14.236566 0.596413 -10.460091 -1.646710 26.662395 -2.731108 25.969462 0.000002 0.000002 -0.000003 0.000002 0.000002 -0.000003 -0.000002 -0.000000 0.000000 -1.575518 0.414965 -2.976365 -3.564588 -0.383189 -0.759244 -3.581697 0.111005 -0.904717 7.825065 -1.408608 5.940731 20.036317 -2.730170 -1.847770 0.000000 0.000000 0.000000 0.000000 0.000000 0.000000 0.000000 0.000000 0.000000 -7.909732 15.544496 43.267729 -125.005344 31.999638 -61.271544 0.005821 -94.060140 0.005814 -35.803736 -9.224499 -7.837149 11.976879 -7.237082 -2.819927 5.009374 21.440278 1.712321 -0.000001 -0.000001 -0.000001 0.047960 -0.812971 6.752558 -0.000000 0.000000 -0.000007 -0.000001 -0.000001 -0.000002 0.048185 -0.814879 6.768522 0.000004 0.001924 -0.015987 0.000003 -0.000002 -0.000000 0.047960 -0.812965 6.752539 -0.000001 0.000007 -0.000052 0.000000 0.000001 -0.000002 -0.447054 3.211015 7.273321 -0.018089 -4.054244 -0.511076 -0.000001 0.000001 0.000002 -0.000000 -0.000000 0.000000 -6.224492 -13.918672 -24.246833 -107.963352 8.397987 61.182355 0.000129 70.143509 -0.000138 -27.403498 32.388658 -13.233173 -14.772806 17.637854 4.626126 24.999442 -14.900654 -2.681590 -0.000000 -0.000002 -0.000000 0.414528 2.369194 -19.846214 0.124804 -1.314105 10.849639 -0.000002 0.000001 0.000002 0.414533 2.369190 -19.846213 0.124809 -1.314098 10.849633 0.000000 0.000004 -0.000003 0.414534 2.369184 -19.846206 0.124786 -1.314097 10.849621 -0.000000 0.000003 0.000001 0.414528 2.369186 -19.846211 0.124798 -1.314107 10.849620 0.000001 -0.000003 0.000001 -0.000000 0.000001 0.000000 -0.000000 0.000000 0.000000 -0.000000 0.000000 0.000000 -0.000000 0.000000 0.000000 -0.000000 0.000000 0.000000 -0.000000 0.000000 0.000000 -0.000000 -0.000000 -0.000000 -0.000000 0.000000 0.000000 -0.000000 0.000000 0.000000 -0.000000 -0.000000 -0.000000 -0.000001 -0.000000 -0.000000 -0.000001 -0.000000 -0.000000 -0.000002 -0.000000 -0.000000 
-1.122392 129.535278 101.254715 15.008569 3.378556 1.494872 -0.000002 0.000000 -0.000000 -7.670688 17.150086 16.274433 16.705009 -1.451225 3.037509 3.107808 0.253426 -11.960440 -0.000001 -0.000000 -0.000000 -0.000001 -0.000000 -0.000000 0.000001 0.000001 0.000002 -3.075052 -14.137956 -16.399884 0.486414 -9.696075 -1.439894 27.471817 -2.970693 26.866155 -0.000002 0.000000 -0.000000 -0.000002 0.000000 -0.000000 -0.000000 0.000001 -0.000000 -0.076313 0.348445 -4.043495 -1.483232 0.204781 -1.000472 -1.482540 0.749804 -1.159958 6.361771 -1.517922 4.704135 17.616460 -2.688197 -2.173952 0.000002 -0.000000 0.000000 0.000002 -0.000000 0.000000 0.000002 -0.000000 0.000000 -6.895940 14.250008 43.281894 -123.321278 37.210584 -57.844216 0.002499 -95.275825 0.002472 -35.990193 -7.664384 -8.104387 11.976882 -7.237083 -2.819923 5.029577 21.715115 1.730002 -0.000002 -0.000001 -0.000002 0.031804 -0.662476 5.498215 -0.000004 -0.000011 -0.000002 0.000000 0.000001 -0.000003 0.031997 -0.664408 5.514187 0.000006 0.001925 -0.015968 0.000001 -0.000001 -0.000002 0.031813 -0.662477 5.498207 0.000001 -0.000017 0.000011 0.000001 -0.000001 -0.000002 -0.374987 3.371373 6.018252 -0.018081 -4.054258 -0.511066 -0.000000 0.000003 0.000000 0.000000 -0.000001 0.000001 -7.435467 -16.796803 -21.515822 -104.727851 7.686728 64.804739 0.000112 68.214882 -0.000104 -33.410239 21.286602 -14.112635 -14.421265 17.548496 4.614702 25.013990 -15.185365 -2.702823 0.000000 -0.000001 0.000001 0.397836 2.322434 -19.438172 0.133251 -1.357469 11.212415 0.000001 -0.000000 0.000002 0.397835 2.322431 -19.438189 0.133255 -1.357476 11.212446 0.000000 0.000001 -0.000002 0.397829 2.322429 -19.438191 0.133256 -1.357469 11.212447 -0.000000 0.000004 0.000001 0.397827 2.322425 -19.438196 0.133260 -1.357473 11.212450 0.000001 -0.000000 -0.000001 0.000002 0.000001 0.000000 -0.000000 0.000000 0.000000 -0.000000 0.000000 0.000000 -0.000000 0.000000 0.000000 -0.000000 0.000000 0.000000 -0.000000 0.000000 0.000000 -0.000000 0.000000 -0.000000 -0.000000 0.000000 0.000000 -0.000000 0.000000 0.000000 -0.000000 0.000000 -0.000000 -0.000000 0.000000 -0.000000 -0.000000 0.000000 -0.000000 -0.000002 0.000000 -0.000000 
-1.144568 123.302383 104.464561 14.597986 3.947246 2.085920 -0.000001 -0.000000 0.000000 -13.087560 15.299631 16.550445 17.923892 -2.879769 2.226776 2.386058 0.433444 -14.538514 0.000002 0.000001 -0.000000 0.000002 0.000001 -0.000000 -0.000004 0.000001 0.000002 -6.847412 -13.649560 -16.993326 0.369067 -10.474421 -1.142534 28.133896 -3.254599 28.793417 -0.000000 0.000001 0.000001 -0.000000 0.000001 0.000001 -0.000000 0.000002 -0.000000 1.149688 0.001011 -3.869615 0.584820 1.174579 -1.176370 0.687237 0.704945 -0.995093 4.867399 -1.631819 4.328436 14.423428 -2.563808 -2.332583 0.000001 0.000000 -0.000000 0.000001 0.000000 -0.000000 0.000001 0.000000 -0.000000 -5.769649 12.371078 43.317162 -119.865203 41.329710 -57.749236 -0.002141 -95.276447 -0.002100 -36.899715 -6.867407 -8.282844 11.976882 -7.237090 -2.819924 5.053650 22.044033 1.751061 0.000002 -0.000001 0.000000 0.018277 -0.502409 4.166868 -0.000004 0.000000 -0.000002 -0.000001 0.000001 -0.000002 0.018415 -0.504329 4.182850 0.000000 0.001925 -0.015973 -0.000000 -0.000000 0.000002 0.018274 -0.502405 4.166868 -0.000003 -0.000001 0.000017 0.000001 -0.000001 -0.000002 -0.294655 3.539809 4.685620 -0.018095 -4.054255 -0.511078 0.000001 0.000001 -0.000002 -0.000003 -0.000000 -0.000000 -6.476418 -17.137216 -19.047480 -103.211310 10.377318 69.848889 0.000003 65.105684 0.000008 -37.399899 12.566394 -11.428496 -14.000452 17.441655 4.600796 25.031233 -15.526103 -2.728245 0.000000 -0.000001 -0.000000 0.375447 2.258061 -18.878061 0.145506 -1.417823 11.718019 -0.000000 0.000000 0.000002 0.375453 2.258057 -18.878059 0.145505 -1.417827 11.718038 0.000000 0.000001 0.000002 0.375450 2.258053 -18.878057 0.145500 -1.417827 11.718035 0.000001 0.000001 -0.000001 0.375445 2.258052 -18.878062 0.145500 -1.417825 11.718007 -0.000000 -0.000001 0.000004 -0.000001 0.000000 -0.000003 0.000002 0.000000 -0.000000 0.000002 0.000000 -0.000000 0.000002 0.000000 -0.000000 0.000002 0.000000 -0.000000 0.000002 0.000000 -0.000000 0.000002 0.000001 -0.000000 0.000002 0.000000 -0.000000 0.000002 0.000000 -0.000000 0.000002 0.000001 -0.000000 0.000001 0.000000 -0.000000 0.000001 0.000000 -0.000000 -0.000001 -0.000000 0.000000 
